<svg width="28" height="26" viewBox="0 0 28 26" fill="none" xmlns="http://www.w3.org/2000/svg">
<g id="Group 18179">
<path id="Vector (Stroke)" fill-rule="evenodd" clip-rule="evenodd" d="M0.208984 1.59271C0.208984 0.968729 0.718527 0.462891 1.34708 0.462891H5.89946C6.3856 0.462891 6.81806 0.769423 6.9759 1.22588L8.18289 4.71634H26.653C27.0238 4.71634 27.3714 4.89568 27.5844 5.19697C27.7975 5.49825 27.8494 5.88369 27.7234 6.22993L25.4254 12.5469C25.3194 13.1036 25.0534 13.8627 24.5377 14.5052C23.9517 15.2352 23.0068 15.8409 21.7019 15.7169C20.3158 15.5851 15.0136 15.6344 11.478 15.694C11.7334 16.533 11.9454 17.2158 12.0868 17.6486C12.3681 18.5096 12.6911 18.9584 12.9086 19.1744C13.0088 19.2738 13.0795 19.3189 13.114 19.3376H22.3484C22.977 19.3376 23.4865 19.8434 23.4865 20.4674C23.4865 21.0914 22.977 21.5972 22.3484 21.5972H13.022C12.4193 21.5972 11.8037 21.2731 11.2992 20.7723C10.7702 20.2472 10.286 19.4609 9.92166 18.3457C9.69696 17.658 9.31113 16.3959 8.8662 14.9152C8.01066 12.0679 6.92218 8.3637 6.29767 6.22402L5.08687 2.72254H1.34708C0.718527 2.72254 0.208984 2.2167 0.208984 1.59271ZM8.88783 6.97599C9.44183 8.86633 10.1641 11.3171 10.8006 13.4458C14.261 13.3825 20.2946 13.3131 21.9188 13.4675C22.2999 13.5037 22.5433 13.3639 22.7576 13.0969C23.0057 12.7879 23.1523 12.3612 23.1972 12.0792C23.2084 12.0085 23.2264 11.939 23.2509 11.8717L25.0319 6.97599H8.88783Z" fill="white"/>
<g id="Ellipse 17">
<circle cx="11.3127" cy="24.1047" r="1.43284" fill="white"/>
<circle cx="11.3127" cy="24.1047" r="1.43284" fill="white"/>
<circle cx="11.3127" cy="24.1047" r="1.43284" fill="white"/>
</g>
<g id="Ellipse 18">
<circle cx="23.134" cy="24.1047" r="1.43284" fill="white"/>
<circle cx="23.134" cy="24.1047" r="1.43284" fill="white"/>
<circle cx="23.134" cy="24.1047" r="1.43284" fill="white"/>
</g>
</g>
</svg>
